<?xml version="1.0" encoding="UTF-8" standalone="no"?>
<svg
   xmlns:dc="http://purl.org/dc/elements/1.1/"
   xmlns:cc="http://creativecommons.org/ns#"
   xmlns:rdf="http://www.w3.org/1999/02/22-rdf-syntax-ns#"
   xmlns:svg="http://www.w3.org/2000/svg"
   xmlns="http://www.w3.org/2000/svg"
   xmlns:sodipodi="http://sodipodi.sourceforge.net/DTD/sodipodi-0.dtd"
   xmlns:inkscape="http://www.inkscape.org/namespaces/inkscape"
   width="67.46875mm"
   height="37.041691mm"
   viewBox="0 0 67.46875 37.041691"
   version="1.1"
   id="svg8"
   inkscape:version="1.0.1 (3bc2e813f5, 2020-09-07)"
   sodipodi:docname="logo-pollstream-raw.svg">
  <defs
     id="defs2" />
  <sodipodi:namedview
     id="base"
     pagecolor="#ffffff"
     bordercolor="#666666"
     borderopacity="1.0"
     inkscape:pageopacity="0.0"
     inkscape:pageshadow="2"
     inkscape:zoom="2"
     inkscape:cx="157.9944"
     inkscape:cy="51.397346"
     inkscape:document-units="mm"
     inkscape:current-layer="layer1"
     inkscape:document-rotation="0"
     showgrid="true"
     inkscape:window-width="1600"
     inkscape:window-height="830"
     inkscape:window-x="0"
     inkscape:window-y="0"
     inkscape:window-maximized="1">
    <inkscape:grid
       type="xygrid"
       id="grid833"
       originx="-25.135415"
       originy="-240.77083" />
  </sodipodi:namedview>
  <metadata
     id="metadata5">
    <rdf:RDF>
      <cc:Work
         rdf:about="">
        <dc:format>image/svg+xml</dc:format>
        <dc:type
           rdf:resource="http://purl.org/dc/dcmitype/StillImage" />
        <dc:title></dc:title>
      </cc:Work>
    </rdf:RDF>
  </metadata>
  <g
     inkscape:label="Слой 1"
     inkscape:groupmode="layer"
     id="layer1"
     transform="translate(-25.135418,-240.77081)">
    <path
       style="fill:#000000;stroke:none;stroke-width:0.264583px;stroke-linecap:butt;stroke-linejoin:miter;stroke-opacity:1"
       d="m 25.135418,277.8125 9.260416,-18.52084 -9.260416,-18.52084 h 5.291666 l 5.291667,10.58335 v 0 L 37.041668,254 l 1.322916,2.64583 1.322917,2.64584 -1.322917,2.64583 -1.322916,2.64583 -6.614584,13.22917 z"
       id="path928"
       sodipodi:nodetypes="ccccccccccccc" />
    <path
       style="fill:#000000;stroke:none;stroke-width:0.264583px;stroke-linecap:butt;stroke-linejoin:miter;stroke-opacity:1"
       d="m 35.718752,277.8125 9.260416,-18.52084 -9.260416,-18.52084 h 5.291666 l 5.291667,10.58335 v 0 L 47.625002,254 l 1.322916,2.64583 1.322917,2.64584 -1.322917,2.64583 -1.322916,2.64583 -6.614584,13.22917 z"
       id="path928-3"
       sodipodi:nodetypes="ccccccccccccc" />
    <path
       style="fill:#000000;stroke:none;stroke-width:0.264583px;stroke-linecap:butt;stroke-linejoin:miter;stroke-opacity:1"
       d="m 46.302085,277.8125 9.260416,-18.52084 -9.260416,-18.52084 h 5.291666 l 5.291667,10.58335 v 0 L 58.208335,254 l 1.322916,2.64583 1.322917,2.64584 -1.322917,2.64583 -1.322916,2.64583 -6.614584,13.22917 z"
       id="path928-6"
       sodipodi:nodetypes="ccccccccccccc" />
    <path
       style="fill:#000000;stroke:none;stroke-width:0.264583px;stroke-linecap:butt;stroke-linejoin:miter;stroke-opacity:1"
       d="m 56.885418,277.81249 9.260416,-18.52084 -9.260416,-18.52084 h 5.291666 l 5.291667,10.58335 v 0 l 1.322917,2.64583 1.322916,2.64583 1.322917,2.64584 -1.322917,2.64583 -1.322916,2.64583 -6.614584,13.22917 z"
       id="path928-7"
       sodipodi:nodetypes="ccccccccccccc" />
    <path
       style="fill:#000000;stroke:none;stroke-width:0.264583px;stroke-linecap:butt;stroke-linejoin:miter;stroke-opacity:1"
       d="m 67.468752,277.8125 9.260416,-18.52084 -9.260416,-18.52084 h 5.291666 l 5.291667,10.58335 v 0 L 79.375002,254 l 1.322916,2.64583 1.322917,2.64584 -1.322917,2.64583 -1.322916,2.64583 -6.614584,13.22917 z"
       id="path928-5"
       sodipodi:nodetypes="ccccccccccccc" />
  </g>
</svg>
